# Blender v2.79 (sub 0) OBJ File: ''
# www.blender.org
mtllib special-cube.mtl
o Cube
v -1.000000 -1.000000 1.000000
v -0.567485 -0.567485 -1.000000
v 0.567485 -0.567485 -1.000000
v 1.000000 -1.000000 1.000000
v -0.567484 0.567485 -1.000000
v 0.567485 0.567485 -1.000000
v 1.000000 1.000000 1.000000
v -1.000000 -1.000000 -1.000000
v 1.000000 -1.000000 -1.000000
v 1.000000 1.000000 -1.000000
v -0.567485 -0.567485 0.528489
v 0.567484 -0.567485 0.528489
v -0.567485 0.567485 0.528489
v 0.567485 0.567485 0.528490
v -0.684596 1.000000 1.000000
v -1.000000 0.684596 1.000000
v -0.805296 0.975991 1.000000
v -0.907621 0.907620 0.999999
v -0.975992 0.805296 0.999999
v -0.999999 0.684596 -1.000000
v -0.684595 1.000000 -1.000000
v -0.776975 0.776976 -1.000000
v -0.975991 0.805296 -1.000000
v -0.907620 0.907620 -1.000000
v -0.805295 0.975991 -1.000000
vn 0.0000 -1.0000 0.0000
vn 0.0000 -0.0000 -1.0000
vn 0.0000 1.0000 0.0000
vn -1.0000 0.0000 -0.0000
vn 1.0000 -0.0000 0.0000
vn -0.1951 0.9808 -0.0000
vn -0.5556 0.8315 -0.0000
vn -0.8315 0.5556 -0.0000
vn -0.9808 0.1951 -0.0000
vn -0.0000 0.0000 1.0000
usemtl Material
s off
f 8//1 4//1 1//1
f 2//2 8//2 20//2
f 7//3 21//3 15//3
f 6//4 12//4 14//4
f 9//5 7//5 4//5
f 16//4 8//4 1//4
f 3//2 8//2 2//2
f 5//2 22//2 21//2
f 6//2 9//2 3//2
f 13//2 12//2 11//2
f 2//3 12//3 3//3
f 6//1 13//1 5//1
f 2//5 13//5 11//5
f 20//2 23//2 22//2
f 23//2 24//2 22//2
f 24//2 25//2 22//2
f 25//2 21//2 22//2
f 21//6 17//6 15//6
f 25//7 18//7 17//7
f 24//8 19//8 18//8
f 23//9 16//9 19//9
f 4//10 15//10 16//10
f 8//1 9//1 4//1
f 22//2 5//2 20//2
f 5//2 2//2 20//2
f 7//3 10//3 21//3
f 6//4 3//4 12//4
f 9//5 10//5 7//5
f 16//4 20//4 8//4
f 3//2 9//2 8//2
f 10//2 6//2 21//2
f 6//2 5//2 21//2
f 6//2 10//2 9//2
f 13//2 14//2 12//2
f 2//3 11//3 12//3
f 6//1 14//1 13//1
f 2//5 5//5 13//5
f 21//6 25//6 17//6
f 25//7 24//7 18//7
f 24//8 23//8 19//8
f 23//9 20//9 16//9
f 7//10 15//10 4//10
f 15//10 17//10 19//10
f 17//10 18//10 19//10
f 19//10 16//10 15//10
f 16//10 1//10 4//10
