# Blender v2.79 (sub 0) OBJ File: ''
# www.blender.org
mtllib cube_3.mtl
o Cube
v -1.000000 -3.000000 1.000000
v -0.628152 -2.628152 -1.000000
v 0.628152 -2.628152 -1.000000
v 1.000000 -3.000000 1.000000
v -0.628152 -1.371848 -1.000000
v 0.628153 -1.371848 -1.000000
v 1.000000 -1.000000 1.000000
v -1.000000 -3.000000 -1.000000
v 1.000000 -3.000000 -1.000000
v 1.000000 -1.000000 -1.000000
v -0.628152 -2.628152 0.686886
v 0.628152 -2.628152 0.686886
v -0.628152 -1.371848 0.686885
v 0.628152 -1.371848 0.686886
v -0.667224 -1.000000 1.000000
v -1.000000 -1.332776 1.000000
v -0.794572 -1.025331 1.000000
v -0.902533 -1.097468 0.999999
v -0.974669 -1.205428 0.999999
v -0.999999 -1.332776 -1.000000
v -0.667223 -1.000000 -1.000000
v -0.764691 -1.235308 -1.000000
v -0.974668 -1.205428 -1.000000
v -0.902532 -1.097468 -1.000000
v -0.794571 -1.025331 -1.000000
vn 0.0000 -1.0000 0.0000
vn 0.0000 -0.0000 -1.0000
vn 0.0000 1.0000 -0.0000
vn 1.0000 -0.0000 0.0000
vn -1.0000 -0.0000 0.0000
vn -0.1951 0.9808 -0.0000
vn -0.5556 0.8315 -0.0000
vn -0.8315 0.5556 -0.0000
vn -0.9808 0.1951 -0.0000
vn -0.0000 0.0000 1.0000
usemtl Material
s off
f 8//1 4//1 1//1
f 2//2 8//2 20//2
f 7//3 21//3 15//3
f 6//1 13//1 5//1
f 10//4 4//4 9//4
f 16//5 8//5 1//5
f 2//2 9//2 8//2
f 5//2 22//2 21//2
f 6//2 9//2 3//2
f 13//2 12//2 11//2
f 2//4 13//4 11//4
f 6//5 12//5 14//5
f 2//3 12//3 3//3
f 20//2 23//2 22//2
f 23//2 24//2 22//2
f 24//2 25//2 22//2
f 25//2 21//2 22//2
f 21//6 17//6 15//6
f 25//7 18//7 17//7
f 24//8 19//8 18//8
f 23//9 16//9 19//9
f 4//10 15//10 16//10
f 8//1 9//1 4//1
f 22//2 5//2 20//2
f 5//2 2//2 20//2
f 7//3 10//3 21//3
f 6//1 14//1 13//1
f 10//4 7//4 4//4
f 16//5 20//5 8//5
f 2//2 3//2 9//2
f 10//2 6//2 21//2
f 6//2 5//2 21//2
f 6//2 10//2 9//2
f 13//2 14//2 12//2
f 2//4 5//4 13//4
f 6//5 3//5 12//5
f 2//3 11//3 12//3
f 21//6 25//6 17//6
f 25//7 24//7 18//7
f 24//8 23//8 19//8
f 23//9 20//9 16//9
f 7//10 15//10 4//10
f 15//10 17//10 19//10
f 17//10 18//10 19//10
f 19//10 16//10 15//10
f 16//10 1//10 4//10
