# Blender v2.79 (sub 0) OBJ File: ''
# www.blender.org
mtllib ico-sphere_1-smooth.mtl
o Icosphere
v -2.000000 -3.000000 2.000000
v -2.723607 -2.447220 1.474275
v -1.723612 -2.447220 1.149351
v -1.105574 -2.447216 2.000000
v -1.723612 -2.447220 2.850649
v -2.723607 -2.447220 2.525725
v -2.276388 -1.552780 1.149351
v -1.276393 -1.552781 1.474275
v -1.276393 -1.552781 2.525725
v -2.276388 -1.552780 2.850649
v -2.894426 -1.552784 2.000000
v -2.000000 -1.000000 2.000000
v -1.837544 -2.850654 1.500005
v -2.425323 -2.850654 1.690989
v -2.262869 -2.525738 1.190988
v -2.850648 -2.525736 2.000000
v -2.425323 -2.850654 2.309011
v -1.474270 -2.850652 2.000000
v -1.311811 -2.525736 1.500003
v -1.837544 -2.850654 2.499995
v -1.311811 -2.525736 2.499997
v -2.262869 -2.525738 2.809012
v -2.951058 -2.000000 1.690987
v -2.951058 -2.000000 2.309013
v -2.000000 -2.000000 1.000000
v -2.587786 -2.000000 1.190983
v -1.048942 -2.000000 1.690987
v -1.412214 -2.000000 1.190983
v -1.412214 -2.000000 2.809017
v -1.048942 -2.000000 2.309013
v -2.587786 -2.000000 2.809017
v -2.000000 -2.000000 3.000000
v -2.688190 -1.474264 1.500003
v -1.737131 -1.474262 1.190988
v -1.149352 -1.474264 2.000000
v -1.737131 -1.474262 2.809012
v -2.688190 -1.474264 2.499997
v -2.162456 -1.149346 1.500005
v -2.525730 -1.149348 2.000000
v -1.574677 -1.149346 1.690989
v -1.574677 -1.149346 2.309011
v -2.162456 -1.149346 2.499995
vn 0.0000 -1.0000 0.0000
vn -0.4253 -0.8506 -0.3090
vn 0.1625 -0.8506 -0.5000
vn -0.7236 -0.4472 -0.5257
vn -0.8506 -0.5257 0.0000
vn 0.5257 -0.8506 0.0000
vn 0.1625 -0.8506 0.5000
vn -0.4253 -0.8506 0.3090
vn -0.9510 0.0000 -0.3090
vn 0.2764 -0.4472 -0.8506
vn -0.2629 -0.5257 -0.8090
vn 0.0000 0.0000 -1.0000
vn 0.8944 -0.4472 0.0000
vn 0.6882 -0.5257 -0.5000
vn 0.9510 0.0000 -0.3090
vn 0.2764 -0.4472 0.8506
vn 0.6882 -0.5257 0.5000
vn 0.5878 0.0000 0.8090
vn -0.7236 -0.4472 0.5257
vn -0.2629 -0.5257 0.8090
vn -0.5878 0.0000 0.8090
vn -0.5878 0.0000 -0.8090
vn 0.5878 0.0000 -0.8090
vn 0.9510 0.0000 0.3090
vn 0.0000 0.0000 1.0000
vn -0.9510 0.0000 0.3090
vn -0.2764 0.4472 -0.8506
vn -0.6882 0.5257 -0.5000
vn -0.1625 0.8506 -0.5000
vn 0.7236 0.4472 -0.5257
vn 0.2629 0.5257 -0.8090
vn 0.4253 0.8506 -0.3090
vn 0.7236 0.4472 0.5257
vn 0.8506 0.5257 0.0000
vn 0.4253 0.8506 0.3090
vn -0.2764 0.4472 0.8506
vn 0.2629 0.5257 0.8090
vn -0.1625 0.8506 0.5000
vn -0.8944 0.4472 0.0000
vn -0.6882 0.5257 0.5000
vn -0.5257 0.8506 0.0000
vn 0.0000 1.0000 0.0000
usemtl None
s 1

f 34//31 7//27 38//29

